<svg xmlns="http://www.w3.org/2000/svg" xmlns:xlink="http://www.w3.org/1999/xlink" width="500" zoomAndPan="magnify" viewBox="0 0 375 374.999991" height="500" preserveAspectRatio="xMidYMid meet" version="1.0"><defs><clipPath id="0b4d5f98df"><path d="M 154.097656 164.832031 L 202.847656 164.832031 L 202.847656 269.832031 L 154.097656 269.832031 Z M 154.097656 164.832031 " clip-rule="nonzero"/></clipPath></defs><rect x="-37.5" width="450" fill="#ffffff" y="-37.499999" height="449.999989" fill-opacity="1"/><rect x="-37.5" width="450" fill="#ffffff" y="-37.499999" height="449.999989" fill-opacity="1"/><rect x="-37.5" width="450" fill="#f5cbc0" y="-37.499999" height="449.999989" fill-opacity="1"/><g clip-path="url(#0b4d5f98df)"><path fill="#0851e9" d="M 202.847656 221.039062 C 191.441406 232.445312 154.519531 269.375 154.117188 269.777344 L 154.117188 257.167969 C 155.570312 255.714844 188.042969 223.234375 190.234375 221.042969 L 182.757812 213.566406 C 153.222656 243.105469 157.554688 238.785156 154.097656 242.199219 L 154.097656 164.886719 L 162.222656 164.886719 C 164.414062 167.074219 186.851562 189.515625 189.054688 191.722656 C 187.4375 193.292969 189.109375 191.660156 182.75 198.007812 C 181.773438 197.03125 184.023438 199.261719 163.003906 178.445312 L 163.003906 220.730469 C 165.394531 218.339844 180.261719 203.46875 182.769531 200.960938 C 182.769531 200.960938 201.605469 219.828125 201.605469 219.828125 L 201.628906 219.816406 Z M 202.847656 221.039062 " fill-opacity="1" fill-rule="nonzero"/></g></svg>